<svg width="166" height="56" viewBox="0 0 166 56" fill="none" xmlns="http://www.w3.org/2000/svg">
<path d="M50.6045 13.0625H53.0107C53.167 6.9375 57.9795 2.46875 64.3857 2.46875C70.6982 2.46875 75.5732 6.875 75.5732 12.5938C75.5732 16.7812 73.7295 19.8438 66.792 27.125L50.7607 44.125V46H79.7295V43.75H54.3232V43.625L68.417 28.7188C75.8545 20.9375 78.042 17.2812 78.042 12.5C78.042 5.59375 72.1045 0.25 64.4482 0.25C56.5732 0.25 50.7607 5.625 50.6045 13.0625ZM88.8857 46V24.2812H110.479V22.0312H88.8857V3.1875H112.354V0.90625H86.417V46H88.8857ZM145.323 46H147.979L130.823 0.90625H128.323L111.136 46H113.823L119.417 30.9688H139.698L145.323 46ZM129.479 4.125H129.636L138.917 28.75H120.229L129.479 4.125Z" fill="white"/>
<path d="M6.77346 13.7403C10.5143 13.7403 13.5469 10.7489 13.5469 7.05871C13.5469 3.36845 10.5143 0.376953 6.77346 0.376953C3.03259 0.376953 0 3.36845 0 7.05871C0 10.7489 3.03259 13.7403 6.77346 13.7403Z" fill="white"/>
<path d="M22.6969 13.7403C26.4377 13.7403 29.4703 10.7489 29.4703 7.05871C29.4703 3.36845 26.4377 0.376953 22.6969 0.376953C18.956 0.376953 15.9233 3.36845 15.9233 7.05871C15.9233 10.7489 18.956 13.7403 22.6969 13.7403Z" fill="white"/>
<path d="M38.6142 13.7403C42.3552 13.7403 45.3877 10.7489 45.3877 7.05871C45.3877 3.36845 42.3552 0.376953 38.6142 0.376953C34.8733 0.376953 31.8408 3.36845 31.8408 7.05871C31.8408 10.7489 34.8733 13.7403 38.6142 13.7403Z" fill="white"/>
<path d="M22.6969 29.4478C26.4377 29.4478 29.4703 26.4563 29.4703 22.7661C29.4703 19.0759 26.4377 16.0845 22.6969 16.0845C18.956 16.0845 15.9233 19.0759 15.9233 22.7661C15.9233 26.4563 18.956 29.4478 22.6969 29.4478Z" fill="white"/>
<path d="M22.6969 45.1493C26.4377 45.1493 29.4703 42.1578 29.4703 38.4676C29.4703 34.7775 26.4377 31.7859 22.6969 31.7859C18.956 31.7859 15.9233 34.7775 15.9233 38.4676C15.9233 42.1578 18.956 45.1493 22.6969 45.1493Z" fill="white"/>
</svg>
