<svg width="219" height="57" viewBox="0 0 219 57" fill="none" xmlns="http://www.w3.org/2000/svg">
<path d="M8.00247 15.7881C12.4221 15.7881 16.005 12.2539 16.005 7.89413C16.005 3.53429 12.4221 0 8.00247 0C3.58284 0 0 3.53429 0 7.89413C0 12.2539 3.58284 15.7881 8.00247 15.7881Z" fill="white"/>
<path d="M26.8152 15.7881C31.2347 15.7881 34.8176 12.2539 34.8176 7.89413C34.8176 3.53429 31.2347 0 26.8152 0C22.3955 0 18.8126 3.53429 18.8126 7.89413C18.8126 12.2539 22.3955 15.7881 26.8152 15.7881Z" fill="white"/>
<path d="M45.6206 15.7881C50.0403 15.7881 53.623 12.2539 53.623 7.89413C53.623 3.53429 50.0403 0 45.6206 0C41.2009 0 37.6182 3.53429 37.6182 7.89413C37.6182 12.2539 41.2009 15.7881 45.6206 15.7881Z" fill="white"/>
<path d="M26.8152 34.3456C31.2347 34.3456 34.8176 30.8113 34.8176 26.4515C34.8176 22.0917 31.2347 18.5575 26.8152 18.5575C22.3955 18.5575 18.8126 22.0917 18.8126 26.4515C18.8126 30.8113 22.3955 34.3456 26.8152 34.3456Z" fill="white"/>
<path d="M26.8152 52.896C31.2347 52.896 34.8176 49.3618 34.8176 45.0021C34.8176 40.6423 31.2347 37.1079 26.8152 37.1079C22.3955 37.1079 18.8126 40.6423 18.8126 45.0021C18.8126 49.3618 22.3955 52.896 26.8152 52.896Z" fill="white"/>
<path d="M75.9795 8.0942H70.0469V4.61095H85.6054V8.0942H79.6729V24.1092H76.0066L75.9795 8.0942Z" fill="white"/>
<path d="M97.9718 19.9322C97.4981 21.2825 96.595 22.4461 95.3967 23.2492C94.1986 24.0524 92.7695 24.4523 91.3223 24.3896C87.0877 24.3896 83.9827 21.3266 83.9827 17.0094C83.9827 12.6921 87.1011 9.62914 91.3223 9.62914C92.2628 9.62344 93.1948 9.80419 94.0631 10.1607C94.9315 10.5172 95.7183 11.0422 96.3769 11.7043C97.0357 12.3666 97.5527 13.1527 97.8977 14.0158C98.2424 14.8788 98.4081 15.8017 98.3844 16.7291C98.3765 17.0642 98.3471 17.3986 98.2965 17.7299L98.2424 18.1238H87.5274C87.6296 19.0468 88.076 19.8993 88.7799 20.516C89.4836 21.1325 90.3946 21.469 91.3357 21.4601C91.9246 21.4899 92.511 21.3632 93.0334 21.0933C93.5558 20.8234 93.995 20.42 94.3054 19.9254L97.9718 19.9322ZM94.8669 15.7548C94.5556 13.9464 93.3449 12.5518 91.3357 12.5518C89.1914 12.5518 87.9536 13.9464 87.5274 15.7548H94.8669Z" fill="white"/>
<path d="M100.515 4.61095H104.039V24.1092H100.515V4.61095Z" fill="white"/>
<path d="M120.132 19.932C119.659 21.2801 118.758 22.442 117.563 23.245C116.367 24.0479 114.941 24.4493 113.496 24.3894C109.262 24.3894 106.157 21.3266 106.157 17.0092C106.157 12.6919 109.262 9.62895 113.496 9.62895C114.52 9.63373 115.53 9.85677 116.458 10.283C117.386 10.709 118.209 11.3281 118.872 12.0976C119.534 12.8671 120.02 13.769 120.296 14.7411C120.572 15.7132 120.631 16.7328 120.471 17.7299L120.416 18.1236H109.688C109.79 19.0466 110.237 19.8992 110.94 20.5158C111.644 21.1323 112.555 21.469 113.496 21.4601C114.085 21.4899 114.671 21.3632 115.194 21.0931C115.716 20.8232 116.156 20.4198 116.466 19.9254L120.132 19.932ZM117.027 15.7548C116.716 13.9464 115.505 12.5518 113.496 12.5518C111.352 12.5518 110.114 13.9464 109.688 15.7548H117.027Z" fill="white"/>
<path d="M123.792 13.2459H121.391V9.90935H123.792V7.81414C123.759 7.34857 123.828 6.88136 123.993 6.4443C124.159 6.00705 124.418 5.61026 124.753 5.28058C125.088 4.9509 125.491 4.69605 125.934 4.53333C126.378 4.3706 126.851 4.30386 127.323 4.3375H130.428V7.40043H128.324C128.194 7.39657 128.064 7.41937 127.942 7.46699C127.821 7.51461 127.71 7.58632 127.618 7.67752C127.525 7.76872 127.453 7.87757 127.404 7.99746C127.356 8.11734 127.333 8.24568 127.337 8.37457V9.90935H130.442V13.2459H127.337V24.1093H123.792V13.2459Z" fill="white"/>
<path d="M145.648 17.0092C145.648 21.3266 142.543 24.3894 138.308 24.3894C134.074 24.3894 130.969 21.3533 130.969 17.0092C130.969 12.6652 134.074 9.62895 138.308 9.62895C142.543 9.62895 145.648 12.6785 145.648 17.0092ZM142.123 17.0092C142.123 14.5002 140.425 12.832 138.308 12.832C136.191 12.832 134.5 14.5002 134.5 17.0092C134.5 19.5183 136.191 21.1865 138.308 21.1865C140.425 21.1865 142.123 19.5183 142.123 17.0092Z" fill="white"/>
<path d="M147.765 9.90917H151.012L151.296 11.2972H151.438C151.718 10.9775 152.041 10.6969 152.399 10.463C153.29 9.90053 154.33 9.61038 155.388 9.62895C158.635 9.62895 161.037 11.9978 161.037 15.6345V24.1092H157.506V15.8947C157.506 15.0824 157.179 14.3035 156.596 13.7291C156.014 13.1547 155.224 12.832 154.401 12.832C153.577 12.832 152.788 13.1547 152.205 13.7291C151.623 14.3035 151.296 15.0824 151.296 15.8947V24.1092H147.765V9.90917Z" fill="white"/>
<path d="M183.502 18.8175C183.048 21.0462 181.269 24.3894 176.737 24.3894C172.496 24.3894 169.384 21.3533 169.384 17.0092C169.384 12.6652 172.496 9.62894 176.724 9.62894C178.323 9.58794 179.884 10.1133 181.125 11.1095C182.366 12.1059 183.204 13.5075 183.488 15.0607H179.957C179.735 14.3914 179.298 13.8115 178.712 13.4093C178.126 13.007 177.423 12.8044 176.71 12.832C174.593 12.832 172.902 14.5002 172.902 17.0092C172.902 19.5183 174.593 21.1865 176.71 21.1865C177.445 21.2213 178.17 21.0043 178.761 20.5728C179.353 20.141 179.775 19.521 179.957 18.8175H183.502Z" fill="white"/>
<path d="M194.177 22.7213H194.035C193.75 23.0462 193.418 23.3273 193.048 23.5553C192.116 24.125 191.038 24.4148 189.942 24.3896C186.668 24.3896 184.72 22.3876 184.72 20.0721C184.72 17.2896 186.695 15.3343 190.647 15.3343H193.894V15.0607C193.929 14.7152 193.89 14.3658 193.776 14.0367C193.664 13.7074 193.48 13.406 193.239 13.1528C192.998 12.8997 192.704 12.7005 192.379 12.5692C192.053 12.438 191.702 12.3773 191.349 12.3916C190.777 12.3458 190.205 12.5036 189.74 12.8364C189.275 13.1692 188.946 13.6554 188.813 14.2066H185.281C185.592 11.8645 187.513 9.6091 191.369 9.6091C195.043 9.6091 197.457 12.0046 197.457 15.0408V24.1092H194.495L194.177 22.7213ZM193.894 17.9835H190.93C189.097 17.9835 188.225 18.6508 188.225 19.7919C188.225 20.933 189.043 21.6069 190.483 21.6069C192.629 21.6069 193.866 20.3792 193.866 18.4038L193.894 17.9835Z" fill="white"/>
<path d="M163.742 9.90935H167.267V24.1093H163.742V9.90935Z" fill="white"/>
<path d="M165.502 7.8673C166.656 7.8673 167.592 6.94408 167.592 5.80537C167.592 4.66665 166.656 3.74344 165.502 3.74344C164.348 3.74344 163.412 4.66665 163.412 5.80537C163.412 6.94408 164.348 7.8673 165.502 7.8673Z" fill="white"/>
<path d="M139.58 3.91682H143.253L139.864 7.95408H136.894L139.58 3.91682Z" fill="white"/>
<path d="M71.7779 51.4281V31.9433H75.8367L81.9248 48.9258H82.5268L88.615 31.9433H92.6737V51.4281H90.4211V34.866H89.8528L83.927 51.4281H80.5449L74.6191 34.866H74.0507V51.4281H71.7779Z" fill="white"/>
<path d="M95.7655 47.3777C95.7655 44.7086 97.4634 42.9203 101.414 42.9203H105.222V42.5066C105.263 42.0583 105.203 41.6069 105.047 41.184C104.892 40.7611 104.644 40.3772 104.321 40.0589C103.999 39.7408 103.609 39.4964 103.181 39.3427C102.752 39.1892 102.294 39.1301 101.84 39.17C99.7228 39.17 98.4578 40.2845 98.3158 41.5322H96.1917C96.3337 39.3101 98.309 37.2216 101.833 37.2216C105.216 37.2216 107.34 39.17 107.34 42.5132V51.4282H105.527L105.243 49.7599H105.101C104.578 50.4018 103.91 50.913 103.149 51.2515C102.388 51.5902 101.557 51.7466 100.724 51.7084C97.7408 51.7084 95.7655 49.9 95.7655 47.3777ZM105.236 45.4292V44.8688H101.427C98.884 44.8688 97.8964 45.983 97.8964 47.3777C97.8964 48.7723 98.884 49.7399 100.717 49.7399C103.531 49.7599 105.222 48.0916 105.222 45.4492L105.236 45.4292Z" fill="white"/>
<path d="M110.723 51.4281V37.5152H112.563L112.84 38.9032H112.969C113.226 38.4303 113.622 38.0449 114.105 37.7972C114.587 37.5497 115.134 37.4514 115.675 37.5152H118.076V39.4637H115.945C113.97 39.4637 112.84 40.5713 112.84 42.5266V51.4281H110.723Z" fill="white"/>
<path d="M119.895 51.4281V31.9433H122.012V43.9144L128.33 37.5152H131.036L124.272 44.335L131.327 51.4281H128.621L122.019 44.7553V51.4281H119.895Z" fill="white"/>
<path d="M131.328 44.4749C131.328 40.1574 134.291 37.2348 138.092 37.2348C141.759 37.2348 144.579 40.0173 144.579 43.9077C144.595 44.4227 144.55 44.9379 144.444 45.4424H133.445C133.516 46.6115 134.038 47.7094 134.903 48.5109C135.768 49.3125 136.912 49.757 138.099 49.7531C138.883 49.7779 139.658 49.5814 140.333 49.1864C141.007 48.7916 141.554 48.215 141.907 47.5244H144.167C143.76 48.7848 142.943 49.8776 141.842 50.6329C140.741 51.3883 139.418 51.7639 138.079 51.7016C134.291 51.7084 131.328 48.7856 131.328 44.4749ZM142.476 43.5006C142.47 42.3573 142.008 41.2621 141.188 40.4536C140.368 39.6452 139.258 39.1886 138.099 39.1833C136.91 39.1763 135.764 39.6207 134.897 40.4242C134.031 41.2279 133.511 42.3293 133.445 43.5006H142.476Z" fill="white"/>
<path d="M150.377 51.4282C150.048 51.4576 149.717 51.4179 149.405 51.3116C149.093 51.2053 148.807 51.0348 148.566 50.8116C148.326 50.5884 148.136 50.3172 148.01 50.0164C147.884 49.7154 147.823 49.3916 147.834 49.066V39.4637H145.574V37.5152H147.834V33.6182H149.951V37.5152H153.198V39.4637H149.951V48.6456C149.934 48.7591 149.944 48.8747 149.98 48.9838C150.017 49.0926 150.078 49.1915 150.161 49.2726C150.243 49.3537 150.343 49.4148 150.454 49.4506C150.564 49.4867 150.681 49.4966 150.796 49.4797H153.198V51.4282H150.377Z" fill="white"/>
<path d="M155.876 57V37.5152H157.709L157.993 39.4637H158.135C158.65 38.7622 159.33 38.1937 160.115 37.8057C160.9 37.4178 161.769 37.2219 162.647 37.235C166.32 37.235 169.141 40.1576 169.141 44.4751C169.141 48.7924 166.32 51.7084 162.647 51.7084C161.769 51.7214 160.9 51.5256 160.115 51.1377C159.33 50.7499 158.65 50.1812 158.135 49.4797H157.993V57H155.876ZM167.024 44.4751C167.024 41.2721 164.906 39.1835 162.505 39.1835C160.103 39.1835 157.993 41.2721 157.993 44.4751C157.993 47.6781 160.11 49.7599 162.505 49.7599C164.9 49.7599 167.024 47.6713 167.024 44.4751Z" fill="white"/>
<path d="M171.821 51.4281V31.9433H173.938V51.4281H171.821Z" fill="white"/>
<path d="M176.9 47.3777C176.9 44.7086 178.591 42.9203 182.542 42.9203H186.351V42.5066C186.351 40.4178 185.086 39.17 182.968 39.17C180.851 39.17 179.586 40.2845 179.437 41.5322H177.327C177.462 39.3101 179.437 37.2216 182.968 37.2216C186.351 37.2216 188.468 39.17 188.468 42.5132V51.4282H186.635L186.351 49.7599H186.215C185.691 50.4011 185.024 50.9115 184.263 51.25C183.502 51.5885 182.672 51.7455 181.838 51.7084C178.876 51.7084 176.9 49.9 176.9 47.3777ZM186.372 45.4292V44.8688H182.562C180.026 44.8688 179.038 45.983 179.038 47.3777C179.038 48.7723 180.026 49.7399 181.859 49.7399C184.673 49.7599 186.351 48.0916 186.351 45.4492L186.372 45.4292Z" fill="white"/>
<path d="M191.011 44.4749C191.011 40.1576 193.973 37.2348 197.775 37.2348C199.209 37.1745 200.62 37.6163 201.756 38.482C202.892 39.3476 203.681 40.5816 203.985 41.966H201.868C201.603 41.1145 201.056 40.3762 200.313 39.8709C199.57 39.3657 198.674 39.1233 197.775 39.1833C195.238 39.1833 193.122 41.2718 193.122 44.4749C193.122 47.6779 195.238 49.7599 197.775 49.7599C198.695 49.8184 199.607 49.5585 200.355 49.025C201.102 48.4915 201.637 47.7178 201.868 46.8371H203.985C203.711 48.2474 202.935 49.514 201.795 50.4077C200.655 51.3013 199.23 51.7628 197.775 51.7084C193.973 51.7084 191.011 48.7855 191.011 44.4749Z" fill="white"/>
<path d="M205.54 44.4749C205.54 40.1574 208.504 37.2348 212.305 37.2348C215.979 37.2348 218.799 40.0173 218.799 43.9077C218.814 44.4231 218.766 44.9383 218.658 45.4424H207.671C207.743 46.6115 208.263 47.7094 209.129 48.5109C209.995 49.3125 211.139 49.757 212.325 49.7531C213.11 49.7776 213.886 49.5808 214.561 49.1862C215.238 48.7915 215.785 48.215 216.14 47.5244H218.393C217.986 48.7848 217.17 49.8776 216.069 50.6329C214.967 51.3883 213.645 51.7639 212.305 51.7016C208.504 51.7084 205.54 48.7856 205.54 44.4749ZM216.688 43.5006C216.683 42.3573 216.219 41.2621 215.401 40.4536C214.581 39.6452 213.471 39.1886 212.312 39.1833C211.126 39.1814 209.982 39.6277 209.12 40.4307C208.258 41.2336 207.739 42.3323 207.671 43.5006H216.688Z" fill="white"/>
</svg>
